<svg width="65" height="80" viewBox="0 0 65 80" fill="none" xmlns="http://www.w3.org/2000/svg">
<path d="M25.8684 54.7295C25.1448 55.0913 24.6021 55.2722 23.8785 55.4531C23.1549 54.1868 22.6122 53.1014 21.7077 51.8351C20.2605 49.8452 18.8133 48.2171 17.3661 46.2272C15.1953 43.3328 13.3863 40.2576 12.6627 36.6396C10.8538 27.2329 15.9189 18.3688 24.9639 14.7508C36.7223 10.0475 49.9279 17.8261 51.7369 30.1272C52.4605 35.7351 50.8324 40.6194 47.5762 45.1418C46.129 47.3126 44.501 49.1216 43.0538 51.1115C42.1493 52.3778 41.4257 53.825 40.7021 55.0913C40.3403 55.634 39.9785 56.1767 39.4358 56.3576C34.9133 58.1666 30.3908 59.7946 25.8684 61.4227C25.3257 61.6036 24.9639 61.6036 24.783 60.88C24.6021 60.1564 24.6021 59.7946 25.3257 59.4328C25.6875 59.2519 26.0493 59.071 26.592 58.8901C30.3908 57.443 34.5515 55.9958 38.3504 54.5486C38.8931 54.3677 39.074 54.0059 39.2549 53.6441C40.7021 50.7497 42.8729 48.2171 44.8628 45.6845C46.8526 43.3328 48.4807 40.6194 49.5661 37.725C51.556 31.3935 50.1088 25.7857 45.9481 21.0823C40.883 15.6553 34.7324 13.8463 27.6774 16.0171C20.6223 18.1879 16.6425 23.0722 15.3762 30.3081C14.4717 35.3733 16.0998 39.7149 18.9942 43.8755C20.8032 46.2272 22.6122 48.5789 24.2403 50.9306C24.6021 52.1969 25.3257 53.4632 25.8684 54.7295Z" fill="#000000"/>
<path d="M25.1445 74.2666C24.9636 74.0857 24.4209 73.7239 24.4209 73.543C24.4209 73.1812 24.6018 72.8194 24.7827 72.2767C24.9636 72.0958 25.1445 72.0958 25.5063 71.9149C29.8479 70.2868 34.3703 68.6587 38.7119 67.0306C39.6164 66.6688 40.1591 66.8497 40.34 67.5733C40.5209 68.2969 40.1591 68.6587 39.4355 69.0205C34.913 70.6486 30.5715 72.2767 26.049 73.9048C25.6872 74.0857 25.3254 74.0857 25.1445 74.2666Z" fill="#000000"/>
<path d="M25.1445 67.9352C24.9636 67.7543 24.4209 67.3925 24.4209 67.2116C24.4209 66.8498 24.6018 66.488 24.7827 65.9453C24.7827 65.7644 25.1445 65.7644 25.5063 65.5835C29.8479 63.9554 34.3703 62.3273 38.7119 60.6992C39.6164 60.3374 39.9782 60.5183 40.34 61.061C40.7018 61.7846 40.34 62.3273 39.4355 62.6891C34.913 64.3172 30.3906 65.9453 26.049 67.5734C25.5063 67.7543 25.3254 67.7543 25.1445 67.9352Z" fill="#000000"/>
<path d="M39.0745 73.1812C37.8082 77.8845 29.8486 80.598 25.3262 78.0654C29.8486 76.6182 34.552 74.9901 39.0745 73.1812Z" fill="#000000"/>
<path d="M33.2856 4.43963C33.2856 5.16323 33.2856 6.06773 33.2856 6.79132C33.2856 7.51492 32.9238 7.69582 32.3811 7.69582C31.6575 7.69582 31.4766 7.33402 31.4766 6.61043C31.4766 4.98234 31.4766 3.35424 31.4766 1.72615C31.4766 1.00255 31.8384 0.821655 32.3811 0.821655C33.1047 0.821655 33.2856 1.18345 33.2856 1.90705C33.2856 2.81154 33.2856 3.71604 33.2856 4.43963Z" fill="#000000"/>
<path d="M3.61798 32.1172C4.34157 32.1172 5.24607 32.1172 5.96966 32.1172C6.69326 32.1172 7.05506 32.479 7.05506 33.0217C7.05506 33.7453 6.69326 33.9262 5.96966 33.9262C4.34157 33.9262 2.71348 33.9262 1.08539 33.9262C0.361798 33.9262 0 33.5644 0 33.0217C0 32.2981 0.361798 32.1172 1.08539 32.1172C1.80899 32.1172 2.71348 32.1172 3.61798 32.1172Z" fill="#000000"/>
<path d="M60.9622 34.1071C60.2386 34.1071 59.3341 34.1071 58.6106 34.1071C57.887 34.1071 57.7061 33.7453 57.7061 33.2026C57.7061 32.479 58.0679 32.2981 58.6106 32.2981C60.2386 32.2981 61.8667 32.2981 63.4948 32.2981C64.2184 32.2981 64.3993 32.6599 64.3993 33.2026C64.3993 33.9262 64.0375 34.1071 63.3139 34.1071C62.5903 34.1071 61.6858 34.1071 60.9622 34.1071Z" fill="#000000"/>
<path d="M9.76899 9.50488C10.1308 9.68578 10.4926 9.86667 10.4926 10.0476C11.578 11.133 12.6634 12.2184 13.9297 13.4847C14.4724 14.0273 14.4724 14.5701 13.9297 14.9318C13.387 15.4745 13.0252 15.4745 12.4825 14.9318C11.3971 13.8465 10.3117 12.7611 9.04539 11.4948C8.86449 11.133 8.68359 10.7712 8.68359 10.4094C9.04539 10.0476 9.40719 9.86668 9.76899 9.50488Z" fill="#000000"/>
<path d="M51.0131 50.7496C51.3749 51.1114 51.7367 51.1114 51.7367 51.4732C52.8221 52.5586 53.9075 53.644 54.9929 54.7294C55.5356 55.2721 55.5356 55.8148 55.1738 56.3575C54.6311 56.9002 54.2693 56.9002 53.5457 56.1766C52.4603 55.0912 51.3749 54.0058 50.2895 52.7395C49.9277 52.3777 49.9277 52.0159 49.9277 51.6541C50.1086 51.2923 50.6513 50.9305 51.0131 50.7496Z" fill="#000000"/>
<path d="M55.717 10.952C55.5361 11.3138 55.3552 11.6756 54.9934 11.6756C53.908 12.7609 52.8227 13.8463 51.5564 15.1126C51.0137 15.6553 50.6519 15.6553 50.1092 15.1126C49.5665 14.5699 49.5665 14.2081 50.1092 13.6654C51.1946 12.58 52.28 11.4947 53.5462 10.2284C53.908 10.0475 54.2698 9.86656 54.6316 10.0475C55.1743 10.0475 55.3552 10.5902 55.717 10.952Z" fill="#000000"/>
<path d="M9.7682 56.5385C9.4064 56.1767 9.04461 55.9958 9.04461 55.8149C8.86371 55.4531 8.86371 55.0913 9.2255 54.9104C10.3109 53.6442 11.5772 52.3779 12.8435 51.2925C13.3862 50.9307 13.748 50.9307 14.1098 51.2925C14.6525 51.8352 14.6525 52.197 14.1098 52.7397C13.0244 54.006 11.7581 55.0913 10.4918 56.3576C10.4918 56.1767 10.13 56.3576 9.7682 56.5385Z" fill="#000000"/>
</svg>
