<svg width="65" height="65" viewBox="0 0 65 65" fill="none" xmlns="http://www.w3.org/2000/svg">
<path d="M62.2288 1.87683C61.3243 1.87683 60.058 1.87683 59.1535 1.87683C52.6412 2.23862 46.3097 3.68581 40.3401 6.5802C33.1041 10.0173 26.9535 14.7206 22.2502 21.233C18.8131 25.5746 16.4614 30.4589 14.6524 35.524C14.4715 35.8858 14.6524 36.0667 14.8333 36.2476C16.2805 37.6948 17.7277 39.142 19.1749 40.5892C19.3558 40.7701 19.5367 41.1319 19.5367 41.3128C19.5367 41.6746 19.3558 42.0364 18.994 42.0364C18.6322 42.0364 18.2704 42.2173 18.0895 41.8555C17.3659 41.1319 16.6423 40.4083 15.9187 39.6847C15.0142 38.7802 14.1097 37.6948 13.2052 36.9712C12.8434 36.6094 12.6625 36.2476 12.8434 35.7049C15.0142 29.3735 17.9086 23.5847 22.2502 18.5195C26.5917 13.2735 31.8378 9.11278 37.8075 6.0375C43.2344 3.14312 49.2041 1.33413 55.3547 0.610534C57.8873 0.0678371 60.6007 -0.113062 63.1333 0.0678371C63.8569 0.0678371 64.0378 0.429635 64.2187 1.15323C64.5805 11.6454 62.0479 21.233 56.2592 30.278C50.6513 39.142 42.8726 45.6544 33.285 49.815C31.8378 50.5386 30.2097 50.9004 28.5816 51.624C28.0389 51.8049 27.858 51.8049 27.4962 51.2622C25.8681 49.6341 24.0592 47.8251 22.4311 46.1971C22.0693 45.8353 21.8884 45.4735 22.2502 44.9308C22.612 44.3881 23.1547 44.3881 23.6974 44.9308C25.1446 46.378 26.5917 47.8251 28.0389 49.2723C28.4007 49.6341 28.5816 49.6341 28.7625 49.4532C35.8176 47.1015 42.149 43.1218 47.3951 38.0566C53.7266 31.906 57.8872 24.6701 60.2389 16.5296C61.5052 12.0072 62.2288 7.30379 62.2288 2.60042C62.4097 2.23862 62.2288 2.05772 62.2288 1.87683Z" fill="#000000"/>
<path d="M53.3642 20.5094C53.3642 25.9364 49.0227 30.2779 43.5957 30.2779C38.1687 30.2779 33.8271 25.9364 33.8271 20.5094C33.8271 15.0824 38.1687 10.7408 43.5957 10.7408C49.0227 10.7408 53.3642 15.0824 53.3642 20.5094ZM51.5552 20.6903C51.5552 16.1678 47.9373 12.7307 43.5957 12.7307C39.2541 12.7307 35.6361 16.3487 35.6361 20.6903C35.6361 25.2128 39.2541 28.6498 43.5957 28.6498C47.9373 28.6498 51.5552 25.0319 51.5552 20.6903Z" fill="#000000"/>
<path d="M28.7625 61.9352C29.8479 61.2116 30.9333 60.488 32.0187 59.7644C35.2749 56.87 37.0839 53.2521 37.8075 49.0914C37.9884 48.3678 38.3502 48.1869 38.7119 48.1869C39.4355 48.1869 39.6164 48.7296 39.6164 49.2723C39.4355 49.9959 39.2546 51.0813 38.8928 51.8049C37.0839 57.2318 33.8277 61.2116 28.9434 64.106C27.858 64.8296 27.3153 64.4678 27.1344 63.3824C26.4108 59.9453 25.8681 56.5082 25.1445 53.0712C25.1445 52.7094 25.1445 52.3476 25.1445 52.3476C25.3254 51.9858 25.6872 51.8049 26.049 51.8049C26.4108 51.8049 26.7726 52.1667 26.7726 52.5285C26.9535 53.433 27.1344 54.5184 27.4962 55.6037C28.0389 57.4127 28.5816 59.4026 28.7625 61.9352Z" fill="#000000"/>
<path d="M2.35127 35.1622C3.25576 35.524 4.34116 35.7049 5.24565 35.8858C7.41644 36.4285 9.76812 36.6094 11.758 37.1521C11.9389 37.1521 11.9389 37.1521 12.1198 37.1521C12.6625 37.333 12.8434 37.8757 12.8434 38.2375C12.6625 38.7802 12.3007 38.9611 11.758 38.9611C10.4917 38.5993 9.04453 38.4184 7.77823 38.2375C5.60745 37.6948 3.61756 37.5139 1.26587 36.9712C1.08498 36.9712 1.08498 36.9712 0.904076 36.9712C0.180481 36.7903 -0.00041794 36.2476 0.180481 35.524C1.08498 33.715 2.35127 31.906 3.79846 30.4588C6.87374 27.2027 10.4917 25.3937 14.6524 24.4892C14.8333 24.4892 15.0142 24.4892 15.0142 24.3083C15.5569 24.1274 15.9187 24.4892 16.0996 25.0319C16.2805 25.3937 15.9187 25.9364 15.376 25.9364C14.4715 26.2982 13.2052 26.4791 12.3007 26.66C8.14003 28.1072 4.88385 30.6397 2.53217 34.4386C2.53217 34.8004 2.53217 34.9813 2.35127 35.1622Z" fill="#000000"/>
<path d="M13.748 49.4531C13.9289 49.2722 14.1098 48.9104 14.2907 48.7295C17.366 45.6543 20.2604 42.7599 23.3357 39.6846C24.4211 38.5992 25.5065 37.5138 26.5919 36.4284C27.1346 35.8857 27.4964 35.8857 28.0391 36.2475C28.4009 36.6093 28.4009 37.152 27.8582 37.6947C24.2402 41.3127 20.8031 44.9307 17.0042 48.5486C16.4615 49.0913 16.0997 49.634 15.3761 50.1767C15.0143 50.5385 14.6525 50.5385 14.4716 50.3576C13.9289 50.3576 13.748 49.9958 13.748 49.4531Z" fill="#000000"/>
<path d="M9.58767 53.6138C9.94947 53.7947 10.3113 53.9756 10.3113 54.3374C10.4922 54.6992 10.3113 55.061 10.1304 55.2419C9.94947 55.6037 9.58767 55.7846 9.40677 55.9655C7.41688 57.9553 5.6079 59.9452 3.43711 61.9351C3.25621 62.116 2.89441 62.2969 2.71351 62.4778C2.35172 62.4778 1.98992 62.2969 1.98992 61.9351C1.80902 61.3924 1.80902 61.2115 2.17082 60.8497C3.43711 59.5834 4.7034 58.3171 5.96969 57.0508C6.87419 56.1464 7.77868 55.2419 8.68318 54.3374C9.04497 53.9756 9.22587 53.7947 9.58767 53.6138Z" fill="#000000"/>
<path d="M8.14012 47.1016C8.86371 47.1016 9.40641 47.8252 9.04461 48.3679C8.86371 48.5488 8.86371 48.7297 8.68281 48.9106C6.51203 51.0813 4.52214 53.0712 2.35135 55.242L2.17045 55.4229C1.62776 55.7847 1.26596 55.9656 0.904161 55.4229C0.542363 55.0611 0.542363 54.5184 0.904161 54.1566C2.53225 52.5285 4.16034 50.9004 5.78843 49.2724C6.51203 48.5488 6.87382 48.187 7.59742 47.6443C7.77832 47.2825 8.14012 47.1016 8.14012 47.1016Z" fill="#000000"/>
<path d="M17.1851 56.1465C17.1851 56.3274 17.0042 56.5083 16.8233 56.8701C14.4716 59.0409 12.4817 61.0308 10.13 63.3824C9.58731 63.9251 9.22551 63.9251 8.68281 63.3824C8.32102 63.0206 8.32102 62.4779 8.86371 62.1161C11.0345 59.9454 13.2053 57.7746 15.3761 55.6038C15.7379 55.242 16.0997 55.0611 16.4615 55.242C17.0042 55.242 17.1851 55.4229 17.1851 56.1465Z" fill="#000000"/>
</svg>
